<mxfile host="Electron" agent="Mozilla/5.0 (Windows NT 10.0; Win64; x64) AppleWebKit/537.36 (KHTML, like Gecko) draw.io/28.1.2 Chrome/138.0.7204.243 Electron/37.4.0 Safari/537.36" version="28.1.2">
  <diagram name="Page-1" id="hA0EravmuSJHE58WSVHV">
    <mxGraphModel dx="1303" dy="843" grid="1" gridSize="10" guides="0" tooltips="1" connect="1" arrows="1" fold="1" page="1" pageScale="1" pageWidth="1100" pageHeight="1700" background="#FFFFFF" math="0" shadow="1">
      <root>
        <mxCell id="0" />
        <mxCell id="1" parent="0" />
        <mxCell id="6ecQs4DifnJDPKk5CQLq-47" value="Star" style="ellipse;whiteSpace=wrap;html=1;" parent="1" vertex="1">
          <mxGeometry x="112" y="20" width="100" height="60" as="geometry" />
        </mxCell>
        <mxCell id="6ecQs4DifnJDPKk5CQLq-50" value="" style="edgeStyle=orthogonalEdgeStyle;rounded=0;orthogonalLoop=1;jettySize=auto;html=1;" parent="1" source="6ecQs4DifnJDPKk5CQLq-48" target="6ecQs4DifnJDPKk5CQLq-49" edge="1">
          <mxGeometry relative="1" as="geometry" />
        </mxCell>
        <mxCell id="6ecQs4DifnJDPKk5CQLq-48" value="PercobaanLogin = 0" style="rounded=0;whiteSpace=wrap;html=1;" parent="1" vertex="1">
          <mxGeometry x="102" y="120" width="120" height="60" as="geometry" />
        </mxCell>
        <mxCell id="6ecQs4DifnJDPKk5CQLq-53" value="" style="edgeStyle=orthogonalEdgeStyle;rounded=0;orthogonalLoop=1;jettySize=auto;html=1;" parent="1" source="6ecQs4DifnJDPKk5CQLq-49" target="6ecQs4DifnJDPKk5CQLq-52" edge="1">
          <mxGeometry relative="1" as="geometry" />
        </mxCell>
        <mxCell id="6ecQs4DifnJDPKk5CQLq-49" value="Input&lt;div&gt;nama dan NIM&lt;/div&gt;" style="shape=parallelogram;perimeter=parallelogramPerimeter;whiteSpace=wrap;html=1;fixedSize=1;rounded=0;" parent="1" vertex="1">
          <mxGeometry x="102" y="220" width="120" height="60" as="geometry" />
        </mxCell>
        <mxCell id="6ecQs4DifnJDPKk5CQLq-51" value="" style="endArrow=classic;html=1;rounded=0;exitX=0.5;exitY=1;exitDx=0;exitDy=0;entryX=0.5;entryY=0;entryDx=0;entryDy=0;" parent="1" source="6ecQs4DifnJDPKk5CQLq-47" target="6ecQs4DifnJDPKk5CQLq-48" edge="1">
          <mxGeometry width="50" height="50" relative="1" as="geometry">
            <mxPoint x="352" y="240" as="sourcePoint" />
            <mxPoint x="402" y="190" as="targetPoint" />
          </mxGeometry>
        </mxCell>
        <mxCell id="6ecQs4DifnJDPKk5CQLq-55" value="" style="edgeStyle=orthogonalEdgeStyle;rounded=0;orthogonalLoop=1;jettySize=auto;html=1;" parent="1" source="6ecQs4DifnJDPKk5CQLq-52" target="6ecQs4DifnJDPKk5CQLq-54" edge="1">
          <mxGeometry relative="1" as="geometry" />
        </mxCell>
        <mxCell id="6ecQs4DifnJDPKk5CQLq-63" value="False" style="edgeLabel;html=1;align=center;verticalAlign=middle;resizable=0;points=[];" parent="6ecQs4DifnJDPKk5CQLq-55" vertex="1" connectable="0">
          <mxGeometry x="-0.1246" y="-3" relative="1" as="geometry">
            <mxPoint as="offset" />
          </mxGeometry>
        </mxCell>
        <mxCell id="6ecQs4DifnJDPKk5CQLq-66" value="" style="edgeStyle=orthogonalEdgeStyle;rounded=0;orthogonalLoop=1;jettySize=auto;html=1;" parent="1" source="6ecQs4DifnJDPKk5CQLq-52" target="6ecQs4DifnJDPKk5CQLq-65" edge="1">
          <mxGeometry relative="1" as="geometry" />
        </mxCell>
        <mxCell id="6ecQs4DifnJDPKk5CQLq-67" value="True" style="edgeLabel;html=1;align=center;verticalAlign=middle;resizable=0;points=[];" parent="6ecQs4DifnJDPKk5CQLq-66" vertex="1" connectable="0">
          <mxGeometry x="-0.1913" relative="1" as="geometry">
            <mxPoint as="offset" />
          </mxGeometry>
        </mxCell>
        <mxCell id="6ecQs4DifnJDPKk5CQLq-52" value="nama == &quot;Albert&quot; &amp;amp; NIM == 095" style="rhombus;whiteSpace=wrap;html=1;rounded=0;" parent="1" vertex="1">
          <mxGeometry x="102" y="330" width="120" height="120" as="geometry" />
        </mxCell>
        <mxCell id="6ecQs4DifnJDPKk5CQLq-57" value="" style="edgeStyle=orthogonalEdgeStyle;rounded=0;orthogonalLoop=1;jettySize=auto;html=1;" parent="1" source="6ecQs4DifnJDPKk5CQLq-54" target="6ecQs4DifnJDPKk5CQLq-56" edge="1">
          <mxGeometry relative="1" as="geometry" />
        </mxCell>
        <mxCell id="6ecQs4DifnJDPKk5CQLq-54" value="Output&amp;nbsp;&lt;div&gt;nama atau NIM tidak sesuai&lt;/div&gt;" style="shape=parallelogram;perimeter=parallelogramPerimeter;whiteSpace=wrap;html=1;fixedSize=1;rounded=0;" parent="1" vertex="1">
          <mxGeometry x="302" y="350" width="140" height="80" as="geometry" />
        </mxCell>
        <mxCell id="6ecQs4DifnJDPKk5CQLq-59" value="" style="edgeStyle=orthogonalEdgeStyle;rounded=0;orthogonalLoop=1;jettySize=auto;html=1;" parent="1" source="6ecQs4DifnJDPKk5CQLq-56" target="6ecQs4DifnJDPKk5CQLq-58" edge="1">
          <mxGeometry relative="1" as="geometry" />
        </mxCell>
        <mxCell id="6ecQs4DifnJDPKk5CQLq-56" value="PercobaanLogin+=1" style="whiteSpace=wrap;html=1;rounded=0;" parent="1" vertex="1">
          <mxGeometry x="502" y="360" width="120" height="60" as="geometry" />
        </mxCell>
        <mxCell id="6ecQs4DifnJDPKk5CQLq-58" value="PercobaanLogin &amp;lt; 3" style="rhombus;whiteSpace=wrap;html=1;rounded=0;" parent="1" vertex="1">
          <mxGeometry x="692" y="340" width="120" height="100" as="geometry" />
        </mxCell>
        <mxCell id="6ecQs4DifnJDPKk5CQLq-61" value="" style="endArrow=classic;html=1;rounded=0;exitX=0.5;exitY=0;exitDx=0;exitDy=0;entryX=1;entryY=0.5;entryDx=0;entryDy=0;" parent="1" source="6ecQs4DifnJDPKk5CQLq-58" target="6ecQs4DifnJDPKk5CQLq-49" edge="1">
          <mxGeometry width="50" height="50" relative="1" as="geometry">
            <mxPoint x="432" y="310" as="sourcePoint" />
            <mxPoint x="482" y="260" as="targetPoint" />
            <Array as="points">
              <mxPoint x="752" y="250" />
              <mxPoint x="642" y="250" />
              <mxPoint x="492" y="250" />
            </Array>
          </mxGeometry>
        </mxCell>
        <mxCell id="6ecQs4DifnJDPKk5CQLq-62" value="True" style="edgeLabel;html=1;align=center;verticalAlign=middle;resizable=0;points=[];" parent="6ecQs4DifnJDPKk5CQLq-61" vertex="1" connectable="0">
          <mxGeometry x="0.0841" y="1" relative="1" as="geometry">
            <mxPoint as="offset" />
          </mxGeometry>
        </mxCell>
        <mxCell id="6ecQs4DifnJDPKk5CQLq-69" value="" style="edgeStyle=orthogonalEdgeStyle;rounded=0;orthogonalLoop=1;jettySize=auto;html=1;" parent="1" source="6ecQs4DifnJDPKk5CQLq-65" target="6ecQs4DifnJDPKk5CQLq-68" edge="1">
          <mxGeometry relative="1" as="geometry" />
        </mxCell>
        <mxCell id="6ecQs4DifnJDPKk5CQLq-65" value="Output&lt;div&gt;Menu Pembelian Tiket Bioskop&lt;/div&gt;" style="shape=parallelogram;perimeter=parallelogramPerimeter;whiteSpace=wrap;html=1;fixedSize=1;rounded=0;" parent="1" vertex="1">
          <mxGeometry x="82" y="490" width="160" height="70" as="geometry" />
        </mxCell>
        <mxCell id="6ecQs4DifnJDPKk5CQLq-71" value="" style="edgeStyle=orthogonalEdgeStyle;rounded=0;orthogonalLoop=1;jettySize=auto;html=1;" parent="1" source="6ecQs4DifnJDPKk5CQLq-68" target="6ecQs4DifnJDPKk5CQLq-70" edge="1">
          <mxGeometry relative="1" as="geometry" />
        </mxCell>
        <mxCell id="6ecQs4DifnJDPKk5CQLq-68" value="Input&amp;nbsp;&lt;div&gt;Pilihan Menu&lt;/div&gt;" style="shape=parallelogram;perimeter=parallelogramPerimeter;whiteSpace=wrap;html=1;fixedSize=1;rounded=0;" parent="1" vertex="1">
          <mxGeometry x="102" y="645" width="120" height="60" as="geometry" />
        </mxCell>
        <mxCell id="6ecQs4DifnJDPKk5CQLq-73" value="" style="edgeStyle=orthogonalEdgeStyle;rounded=0;orthogonalLoop=1;jettySize=auto;html=1;" parent="1" source="6ecQs4DifnJDPKk5CQLq-70" target="6ecQs4DifnJDPKk5CQLq-72" edge="1">
          <mxGeometry relative="1" as="geometry" />
        </mxCell>
        <mxCell id="6ecQs4DifnJDPKk5CQLq-93" value="False" style="edgeLabel;html=1;align=center;verticalAlign=middle;resizable=0;points=[];" parent="6ecQs4DifnJDPKk5CQLq-73" vertex="1" connectable="0">
          <mxGeometry x="-0.0115" y="1" relative="1" as="geometry">
            <mxPoint as="offset" />
          </mxGeometry>
        </mxCell>
        <mxCell id="6ecQs4DifnJDPKk5CQLq-70" value="Pilihan == 1" style="rhombus;whiteSpace=wrap;html=1;rounded=0;" parent="1" vertex="1">
          <mxGeometry x="122" y="775" width="80" height="80" as="geometry" />
        </mxCell>
        <mxCell id="6ecQs4DifnJDPKk5CQLq-75" value="" style="edgeStyle=orthogonalEdgeStyle;rounded=0;orthogonalLoop=1;jettySize=auto;html=1;" parent="1" source="6ecQs4DifnJDPKk5CQLq-72" target="6ecQs4DifnJDPKk5CQLq-74" edge="1">
          <mxGeometry relative="1" as="geometry" />
        </mxCell>
        <mxCell id="6ecQs4DifnJDPKk5CQLq-94" value="False" style="edgeLabel;html=1;align=center;verticalAlign=middle;resizable=0;points=[];" parent="6ecQs4DifnJDPKk5CQLq-75" vertex="1" connectable="0">
          <mxGeometry x="-0.0402" y="1" relative="1" as="geometry">
            <mxPoint as="offset" />
          </mxGeometry>
        </mxCell>
        <mxCell id="6ecQs4DifnJDPKk5CQLq-72" value="Pilihan == 2" style="rhombus;whiteSpace=wrap;html=1;rounded=0;" parent="1" vertex="1">
          <mxGeometry x="324" y="775" width="80" height="80" as="geometry" />
        </mxCell>
        <mxCell id="6ecQs4DifnJDPKk5CQLq-77" value="" style="edgeStyle=orthogonalEdgeStyle;rounded=0;orthogonalLoop=1;jettySize=auto;html=1;" parent="1" source="6ecQs4DifnJDPKk5CQLq-74" target="6ecQs4DifnJDPKk5CQLq-76" edge="1">
          <mxGeometry relative="1" as="geometry" />
        </mxCell>
        <mxCell id="6ecQs4DifnJDPKk5CQLq-95" value="False" style="edgeLabel;html=1;align=center;verticalAlign=middle;resizable=0;points=[];" parent="6ecQs4DifnJDPKk5CQLq-77" vertex="1" connectable="0">
          <mxGeometry x="-0.2914" y="1" relative="1" as="geometry">
            <mxPoint as="offset" />
          </mxGeometry>
        </mxCell>
        <mxCell id="6ecQs4DifnJDPKk5CQLq-74" value="Pilihan == 3" style="rhombus;whiteSpace=wrap;html=1;rounded=0;" parent="1" vertex="1">
          <mxGeometry x="544" y="775" width="80" height="80" as="geometry" />
        </mxCell>
        <mxCell id="6ecQs4DifnJDPKk5CQLq-100" value="" style="edgeStyle=orthogonalEdgeStyle;rounded=0;orthogonalLoop=1;jettySize=auto;html=1;" parent="1" source="6ecQs4DifnJDPKk5CQLq-76" target="6ecQs4DifnJDPKk5CQLq-99" edge="1">
          <mxGeometry relative="1" as="geometry" />
        </mxCell>
        <mxCell id="6ecQs4DifnJDPKk5CQLq-111" value="False" style="edgeLabel;html=1;align=center;verticalAlign=middle;resizable=0;points=[];" parent="6ecQs4DifnJDPKk5CQLq-100" vertex="1" connectable="0">
          <mxGeometry x="-0.2248" relative="1" as="geometry">
            <mxPoint as="offset" />
          </mxGeometry>
        </mxCell>
        <mxCell id="6ecQs4DifnJDPKk5CQLq-76" value="Pilihan == 4" style="rhombus;whiteSpace=wrap;html=1;rounded=0;" parent="1" vertex="1">
          <mxGeometry x="774" y="775" width="80" height="80" as="geometry" />
        </mxCell>
        <mxCell id="6ecQs4DifnJDPKk5CQLq-80" value="Output&lt;div&gt;&amp;nbsp;Harga&amp;amp;Tiket Bioskop&amp;nbsp;&lt;/div&gt;&lt;div&gt;VIP&lt;span style=&quot;background-color: transparent; color: light-dark(rgb(0, 0, 0), rgb(255, 255, 255));&quot;&gt;&amp;amp;Diskon&lt;/span&gt;&lt;/div&gt;" style="shape=parallelogram;perimeter=parallelogramPerimeter;whiteSpace=wrap;html=1;fixedSize=1;rounded=0;" parent="1" vertex="1">
          <mxGeometry x="274" y="930" width="190" height="90" as="geometry" />
        </mxCell>
        <mxCell id="6ecQs4DifnJDPKk5CQLq-82" value="Output&lt;div&gt;&amp;nbsp;Harga&amp;amp;Tiket Bioskop VVIP&lt;span style=&quot;background-color: transparent; color: light-dark(rgb(0, 0, 0), rgb(255, 255, 255));&quot;&gt;&amp;amp;Diskon&lt;/span&gt;&lt;/div&gt;" style="shape=parallelogram;perimeter=parallelogramPerimeter;whiteSpace=wrap;html=1;fixedSize=1;rounded=0;" parent="1" vertex="1">
          <mxGeometry x="494" y="930" width="190" height="90" as="geometry" />
        </mxCell>
        <mxCell id="6ecQs4DifnJDPKk5CQLq-85" value="Output&lt;div&gt;Harga&amp;amp;Tiket Bioskop Reguler&amp;amp;Diskon&lt;/div&gt;" style="shape=parallelogram;perimeter=parallelogramPerimeter;whiteSpace=wrap;html=1;fixedSize=1;rounded=0;" parent="1" vertex="1">
          <mxGeometry x="64" y="930" width="190" height="90" as="geometry" />
        </mxCell>
        <mxCell id="6ecQs4DifnJDPKk5CQLq-87" style="edgeStyle=orthogonalEdgeStyle;rounded=0;orthogonalLoop=1;jettySize=auto;html=1;exitX=0.5;exitY=1;exitDx=0;exitDy=0;entryX=0.519;entryY=0.008;entryDx=0;entryDy=0;entryPerimeter=0;" parent="1" source="6ecQs4DifnJDPKk5CQLq-70" target="6ecQs4DifnJDPKk5CQLq-85" edge="1">
          <mxGeometry relative="1" as="geometry" />
        </mxCell>
        <mxCell id="6ecQs4DifnJDPKk5CQLq-90" value="True" style="edgeLabel;html=1;align=center;verticalAlign=middle;resizable=0;points=[];" parent="6ecQs4DifnJDPKk5CQLq-87" vertex="1" connectable="0">
          <mxGeometry x="-0.3535" y="1" relative="1" as="geometry">
            <mxPoint as="offset" />
          </mxGeometry>
        </mxCell>
        <mxCell id="6ecQs4DifnJDPKk5CQLq-88" style="edgeStyle=orthogonalEdgeStyle;rounded=0;orthogonalLoop=1;jettySize=auto;html=1;exitX=0.5;exitY=1;exitDx=0;exitDy=0;entryX=0.469;entryY=-0.013;entryDx=0;entryDy=0;entryPerimeter=0;" parent="1" source="6ecQs4DifnJDPKk5CQLq-72" target="6ecQs4DifnJDPKk5CQLq-80" edge="1">
          <mxGeometry relative="1" as="geometry" />
        </mxCell>
        <mxCell id="6ecQs4DifnJDPKk5CQLq-91" value="True" style="edgeLabel;html=1;align=center;verticalAlign=middle;resizable=0;points=[];" parent="6ecQs4DifnJDPKk5CQLq-88" vertex="1" connectable="0">
          <mxGeometry x="-0.4587" y="-1" relative="1" as="geometry">
            <mxPoint as="offset" />
          </mxGeometry>
        </mxCell>
        <mxCell id="6ecQs4DifnJDPKk5CQLq-89" style="edgeStyle=orthogonalEdgeStyle;rounded=0;orthogonalLoop=1;jettySize=auto;html=1;exitX=0.5;exitY=1;exitDx=0;exitDy=0;entryX=0.477;entryY=-0.012;entryDx=0;entryDy=0;entryPerimeter=0;" parent="1" source="6ecQs4DifnJDPKk5CQLq-74" target="6ecQs4DifnJDPKk5CQLq-82" edge="1">
          <mxGeometry relative="1" as="geometry" />
        </mxCell>
        <mxCell id="6ecQs4DifnJDPKk5CQLq-92" value="True" style="edgeLabel;html=1;align=center;verticalAlign=middle;resizable=0;points=[];" parent="6ecQs4DifnJDPKk5CQLq-89" vertex="1" connectable="0">
          <mxGeometry x="-0.3777" y="-1" relative="1" as="geometry">
            <mxPoint as="offset" />
          </mxGeometry>
        </mxCell>
        <mxCell id="6ecQs4DifnJDPKk5CQLq-96" value="Output&lt;div&gt;&quot;terimakasih Telah Membeli&amp;nbsp;&lt;/div&gt;&lt;div&gt;Tiket&quot;&lt;/div&gt;" style="shape=parallelogram;perimeter=parallelogramPerimeter;whiteSpace=wrap;html=1;fixedSize=1;rounded=0;" parent="1" vertex="1">
          <mxGeometry x="714" y="930" width="190" height="90" as="geometry" />
        </mxCell>
        <mxCell id="6ecQs4DifnJDPKk5CQLq-98" style="edgeStyle=orthogonalEdgeStyle;rounded=0;orthogonalLoop=1;jettySize=auto;html=1;exitX=0.5;exitY=1;exitDx=0;exitDy=0;entryX=0.527;entryY=-0.013;entryDx=0;entryDy=0;entryPerimeter=0;" parent="1" source="6ecQs4DifnJDPKk5CQLq-76" target="6ecQs4DifnJDPKk5CQLq-96" edge="1">
          <mxGeometry relative="1" as="geometry" />
        </mxCell>
        <mxCell id="6ecQs4DifnJDPKk5CQLq-112" value="True" style="edgeLabel;html=1;align=center;verticalAlign=middle;resizable=0;points=[];" parent="6ecQs4DifnJDPKk5CQLq-98" vertex="1" connectable="0">
          <mxGeometry x="-0.3577" y="-2" relative="1" as="geometry">
            <mxPoint as="offset" />
          </mxGeometry>
        </mxCell>
        <mxCell id="6ecQs4DifnJDPKk5CQLq-101" style="edgeStyle=orthogonalEdgeStyle;rounded=0;orthogonalLoop=1;jettySize=auto;html=1;exitX=0.5;exitY=0;exitDx=0;exitDy=0;entryX=1;entryY=0.5;entryDx=0;entryDy=0;" parent="1" source="6ecQs4DifnJDPKk5CQLq-99" target="6ecQs4DifnJDPKk5CQLq-65" edge="1">
          <mxGeometry relative="1" as="geometry">
            <Array as="points">
              <mxPoint x="974" y="525" />
            </Array>
          </mxGeometry>
        </mxCell>
        <mxCell id="6ecQs4DifnJDPKk5CQLq-99" value="Output&lt;div&gt;&quot;Pilihan tidak&lt;/div&gt;&lt;div&gt;&amp;nbsp;valid&quot;&lt;/div&gt;" style="shape=parallelogram;perimeter=parallelogramPerimeter;whiteSpace=wrap;html=1;fixedSize=1;rounded=0;" parent="1" vertex="1">
          <mxGeometry x="914" y="785" width="120" height="60" as="geometry" />
        </mxCell>
        <mxCell id="6ecQs4DifnJDPKk5CQLq-103" value="" style="endArrow=none;html=1;rounded=0;entryX=0.5;entryY=1;entryDx=0;entryDy=0;" parent="1" target="6ecQs4DifnJDPKk5CQLq-82" edge="1">
          <mxGeometry width="50" height="50" relative="1" as="geometry">
            <mxPoint x="593" y="1080" as="sourcePoint" />
            <mxPoint x="443" y="970" as="targetPoint" />
          </mxGeometry>
        </mxCell>
        <mxCell id="6ecQs4DifnJDPKk5CQLq-104" value="" style="endArrow=none;html=1;rounded=0;entryX=0.477;entryY=0.994;entryDx=0;entryDy=0;entryPerimeter=0;" parent="1" target="6ecQs4DifnJDPKk5CQLq-80" edge="1">
          <mxGeometry width="50" height="50" relative="1" as="geometry">
            <mxPoint x="363" y="1080" as="sourcePoint" />
            <mxPoint x="373" y="1030" as="targetPoint" />
          </mxGeometry>
        </mxCell>
        <mxCell id="6ecQs4DifnJDPKk5CQLq-106" value="" style="endArrow=none;html=1;rounded=0;exitX=0.5;exitY=1;exitDx=0;exitDy=0;" parent="1" source="6ecQs4DifnJDPKk5CQLq-85" edge="1">
          <mxGeometry width="50" height="50" relative="1" as="geometry">
            <mxPoint x="193" y="1050" as="sourcePoint" />
            <mxPoint x="159" y="1080" as="targetPoint" />
          </mxGeometry>
        </mxCell>
        <mxCell id="6ecQs4DifnJDPKk5CQLq-107" value="" style="endArrow=classic;html=1;rounded=0;entryX=0;entryY=0.5;entryDx=0;entryDy=0;" parent="1" target="6ecQs4DifnJDPKk5CQLq-65" edge="1">
          <mxGeometry width="50" height="50" relative="1" as="geometry">
            <mxPoint x="593" y="1080" as="sourcePoint" />
            <mxPoint x="43" y="1080" as="targetPoint" />
            <Array as="points">
              <mxPoint x="43" y="1080" />
              <mxPoint x="43" y="800" />
              <mxPoint x="43" y="660" />
              <mxPoint x="43" y="590" />
              <mxPoint x="43" y="525" />
            </Array>
          </mxGeometry>
        </mxCell>
        <mxCell id="6ecQs4DifnJDPKk5CQLq-108" value="Star" style="ellipse;whiteSpace=wrap;html=1;" parent="1" vertex="1">
          <mxGeometry x="110" y="1172" width="100" height="60" as="geometry" />
        </mxCell>
        <mxCell id="6ecQs4DifnJDPKk5CQLq-109" value="" style="endArrow=classic;html=1;rounded=0;exitX=1;exitY=0.5;exitDx=0;exitDy=0;entryX=1;entryY=0.5;entryDx=0;entryDy=0;" parent="1" source="6ecQs4DifnJDPKk5CQLq-58" target="6ecQs4DifnJDPKk5CQLq-108" edge="1">
          <mxGeometry width="50" height="50" relative="1" as="geometry">
            <mxPoint x="610" y="860" as="sourcePoint" />
            <mxPoint x="660" y="810" as="targetPoint" />
            <Array as="points">
              <mxPoint x="1070" y="390" />
              <mxPoint x="1070" y="840" />
              <mxPoint x="1070" y="1200" />
            </Array>
          </mxGeometry>
        </mxCell>
        <mxCell id="6ecQs4DifnJDPKk5CQLq-113" value="False" style="edgeLabel;html=1;align=center;verticalAlign=middle;resizable=0;points=[];" parent="6ecQs4DifnJDPKk5CQLq-109" vertex="1" connectable="0">
          <mxGeometry x="-0.852" y="-1" relative="1" as="geometry">
            <mxPoint as="offset" />
          </mxGeometry>
        </mxCell>
        <mxCell id="6ecQs4DifnJDPKk5CQLq-110" value="" style="endArrow=none;html=1;rounded=0;entryX=0.449;entryY=0.992;entryDx=0;entryDy=0;entryPerimeter=0;" parent="1" target="6ecQs4DifnJDPKk5CQLq-96" edge="1">
          <mxGeometry width="50" height="50" relative="1" as="geometry">
            <mxPoint x="800" y="1200" as="sourcePoint" />
            <mxPoint x="670" y="1030" as="targetPoint" />
          </mxGeometry>
        </mxCell>
        <mxCell id="eWqTt2xGVZBQosfVf7y8-3" value="" style="endArrow=classic;html=1;rounded=0;entryX=0;entryY=0.25;entryDx=0;entryDy=0;" edge="1" parent="1" target="6ecQs4DifnJDPKk5CQLq-49">
          <mxGeometry width="50" height="50" relative="1" as="geometry">
            <mxPoint x="60" y="240" as="sourcePoint" />
            <mxPoint x="110" y="240" as="targetPoint" />
          </mxGeometry>
        </mxCell>
        <mxCell id="eWqTt2xGVZBQosfVf7y8-5" value="" style="endArrow=classic;html=1;rounded=0;" edge="1" parent="1">
          <mxGeometry width="50" height="50" relative="1" as="geometry">
            <mxPoint x="410" y="420" as="sourcePoint" />
            <mxPoint x="470" y="420" as="targetPoint" />
          </mxGeometry>
        </mxCell>
        <mxCell id="eWqTt2xGVZBQosfVf7y8-6" value="" style="endArrow=classic;html=1;rounded=0;" edge="1" parent="1">
          <mxGeometry width="50" height="50" relative="1" as="geometry">
            <mxPoint x="200" y="550" as="sourcePoint" />
            <mxPoint x="260" y="550" as="targetPoint" />
          </mxGeometry>
        </mxCell>
        <mxCell id="eWqTt2xGVZBQosfVf7y8-7" value="" style="endArrow=classic;html=1;rounded=0;" edge="1" parent="1">
          <mxGeometry width="50" height="50" relative="1" as="geometry">
            <mxPoint x="210" y="1010" as="sourcePoint" />
            <mxPoint x="270" y="1010" as="targetPoint" />
          </mxGeometry>
        </mxCell>
        <mxCell id="eWqTt2xGVZBQosfVf7y8-8" value="" style="endArrow=classic;html=1;rounded=0;" edge="1" parent="1">
          <mxGeometry width="50" height="50" relative="1" as="geometry">
            <mxPoint x="420" y="1010" as="sourcePoint" />
            <mxPoint x="480" y="1010" as="targetPoint" />
          </mxGeometry>
        </mxCell>
        <mxCell id="eWqTt2xGVZBQosfVf7y8-9" value="" style="endArrow=classic;html=1;rounded=0;" edge="1" parent="1">
          <mxGeometry width="50" height="50" relative="1" as="geometry">
            <mxPoint x="640" y="1010" as="sourcePoint" />
            <mxPoint x="700" y="1010" as="targetPoint" />
          </mxGeometry>
        </mxCell>
        <mxCell id="eWqTt2xGVZBQosfVf7y8-10" value="" style="endArrow=classic;html=1;rounded=0;" edge="1" parent="1">
          <mxGeometry width="50" height="50" relative="1" as="geometry">
            <mxPoint x="860" y="1010" as="sourcePoint" />
            <mxPoint x="920" y="1010" as="targetPoint" />
          </mxGeometry>
        </mxCell>
        <mxCell id="eWqTt2xGVZBQosfVf7y8-11" value="" style="endArrow=classic;html=1;rounded=0;" edge="1" parent="1">
          <mxGeometry width="50" height="50" relative="1" as="geometry">
            <mxPoint x="990" y="840" as="sourcePoint" />
            <mxPoint x="1050" y="840" as="targetPoint" />
          </mxGeometry>
        </mxCell>
        <mxCell id="eWqTt2xGVZBQosfVf7y8-12" value="" style="endArrow=classic;html=1;rounded=0;entryX=0.113;entryY=0.266;entryDx=0;entryDy=0;entryPerimeter=0;" edge="1" parent="1" target="6ecQs4DifnJDPKk5CQLq-68">
          <mxGeometry width="50" height="50" relative="1" as="geometry">
            <mxPoint x="60" y="660" as="sourcePoint" />
            <mxPoint x="110" y="660" as="targetPoint" />
          </mxGeometry>
        </mxCell>
      </root>
    </mxGraphModel>
  </diagram>
</mxfile>
